<svg fill='#064079' height="512pt" viewBox="0 0 512 511" width="512pt" xmlns="http://www.w3.org/2000/svg"><path d="m502.007812 454.234375-101.078124-101.078125c26.878906-36.699219 42.804687-81.910156 42.804687-130.789062 0-122.335938-99.535156-221.867188-221.867187-221.867188-122.335938 0-221.867188 99.53125-221.867188 221.867188 0 122.332031 99.53125 221.867187 221.867188 221.867187 48.878906 0 94.089843-15.925781 130.789062-42.804687l101.078125 101.078124c6.65625 6.65625 15.394531 9.976563 24.132813 9.976563 8.738281 0 17.484374-3.328125 24.140624-9.976563 6.441407-6.453124 9.992188-15.019531 9.992188-24.140624 0-9.121094-3.542969-17.691407-9.992188-24.132813zm-160.949218-110.351563c-1.960938 1.9375-3.976563 3.820313-6.039063 5.65625-35.363281 31.511719-83.753906 47.667969-130.953125 42.453126-47.085937-5.195313-90.453125-29.859376-118.808594-67.6875-21.957031-29.292969-34.050781-65.304688-34.050781-101.929688 0-36.136719 12.09375-71.628906 33.417969-100.710938 22.136719-30.191406 53.71875-52.511718 89.652344-63.09375 15.4375-4.550781 31.511718-6.863281 47.605468-6.863281 38.75 0 77.066407 13.699219 107.1875 38.007813 5.785157 4.667968 11.265626 9.71875 16.394532 15.105468 26.417968 27.765626 42.863281 64.179688 46.386718 102.332032.46875 5.058594.699219 10.136718.699219 15.222656-.007812 45.457031-19.183593 89.746094-51.492187 121.507812zm148.882812 146.558594c-6.65625 6.648438-17.484375 6.648438-24.140625 0l-99.617187-99.625c.765625-.667968 1.476562-1.410156 2.242187-2.082031 2.792969-2.460937 5.511719-4.976563 8.175781-7.570313 1.375-1.339843 2.730469-2.695312 4.070313-4.070312 2.601563-2.671875 5.136719-5.402344 7.601563-8.203125.667968-.757813 1.402343-1.449219 2.058593-2.214844l99.625 99.625c3.21875 3.226563 4.992188 7.507813 4.992188 12.066407 0 4.554687-1.78125 8.847656-5.007813 12.074218zm0 0"/><path d="m337.28125 184.496094c10.707031 0 20.972656-3.667969 29.703125-10.617188l.402344-.324218c1.570312-1.246094-8.960938-21.109376-10.097657-23.226563-4.113281-7.6875-8.890624-15.019531-14.230468-21.90625-10.683594-13.769531-23.679688-25.761719-38.351563-35.207031-3.15625-2.03125-6.382812-4.105469-9.683593-5.886719-4.429688-2.40625-8.996094-4.601563-13.671876-6.570313-.230468-.09375-.476562-.164062-.707031-.257812-2.167969 3.910156-2.671875 7.875-2.003906 13.960938.296875 2.6875-.703125 5.359374-2.691406 7.191406-15.785157 14.609375-10.210938 30.082031 2.996093 48.804687 9.667969 13.695313 33.160157 34.039063 58.335938 34.039063zm0 0"/><path d="m137.496094 219.738281c0-3.558593-1.132813-6.289062-3.566406-8.617187-6.707032-6.402344-23.296876-9.628906-44.347657-8.671875-6.84375.34375-13.386719-.902344-19.359375-3.277344-1.164062 7.585937-1.949218 15.292969-1.949218 23.195313 0 33.960937 11.214843 65.28125 29.953124 90.742187.488282-3.277344 1.074219-6.585937 1.851563-9.984375 3.832031-16.84375 12.253906-33.269531 25.019531-48.828125 5.660156-6.886719 12.398438-18.472656 12.398438-34.558594zm0 0"/><path d="m240.84375 246.652344c-.757812-2.191406-1.679688-4.328125-2.710938-6.398438-10.003906-20.097656-24.390624-30.933594-41.628906-31.34375-13.507812-.316406-26.339844-7.808594-33.484375-19.558594-6.902343-11.359374-7.566406-24.585937-1.84375-36.292968l.648438-1.28125c.308593-.597656.640625-1.183594.863281-1.808594 3.269531-9.0625 1.347656-25.683594-2.125-36.734375-1.953125-6.210937-4.761719-11.027344-8.351562-14.3125-1.949219-1.78125-4.199219-3.191406-6.691407-4.179687-2.902343-1.160157-4.703125-1.679688-5.792969-1.945313-.769531.484375-1.582031.914063-2.332031 1.417969-27.886719 18.4375-49.578125 46.265625-60.507812 77.875-.898438 2.574218-1.757813 5.167968-2.519531 7.789062-.222657.769532-.390626 1.5625-.605469 2.339844 4.335937 2.3125 9.480469 3.453125 15.011719 3.179688 18.660156-.851563 43.714843.761718 56.925781 13.382812 5.785156 5.527344 8.847656 12.773438 8.847656 20.957031 0 21.136719-8.847656 36.34375-16.273437 45.390625-11.074219 13.488282-18.328126 27.550782-21.570313 41.777344-2.007813 8.824219-2.859375 17.09375-2.664063 24.695312 2.851563 2.808594 5.820313 5.488282 8.882813 8.074219.835937.707031 1.671875 1.40625 2.519531 2.089844 2.910156 2.347656 5.902344 4.582031 8.976563 6.714844.742187.511719 1.457031 1.066406 2.210937 1.570312 3.871094 2.59375 7.847656 5.035157 11.960938 7.277344.25.136719.523437.25.769531.386719 3.703125 1.988281 7.507813 3.804687 11.382813 5.496094 1.355468.585937 2.730468 1.109374 4.105468 1.664062 4.480469 1.800781 9.054688 3.394531 13.722656 4.777344-.164062-1.714844-.359374-3.421875-.597656-5.121094l-.179687-1.210938c-.554688-3.761718-1.179688-8.019531-.410157-12.65625.980469-5.9375 4.207032-11.730468 9.574219-17.195312 5.433594-5.535156 11.46875-10.808594 17.851563-16.390625 23.894531-20.882813 46.4375-40.601563 36.035156-70.425781zm0 0"/><path d="m360.328125 288.433594c1.09375-2.28125 2.269531-4.515625 3.25-6.855469.15625-.355469.257813-.75.402344-1.109375l-10.027344-10.035156c-2.429687-2.363282-7.609375-3.507813-16.210937-3.507813-14.210938 0-22.65625 24.96875-24.765626 34.742188-.570312 21.707031-20.921874 30.308593-21.800781 30.675781-.367187.152344-.761719.28125-1.144531.375-9.234375 2.339844-23.21875 8.5-25.457031 13.960938-.210938.511718-.5625 1.375.648437 3.378906l9.753906 16.25c1.078126-.402344 2.167969-.761719 3.226563-1.1875 2.621094-1.042969 5.199219-2.167969 7.75-3.34375 2.097656-.964844 4.179687-1.945313 6.21875-3.003906 29.652344-15.371094 53.734375-40.269532 68.15625-70.339844zm0 0"/><path d="m248.789062 340.1875c6.144532-14.925781 29.839844-22.109375 36.300782-23.816406 2.015625-.984375 10.828125-5.847656 10.828125-15.632813 0-.554687.050781-1.101562.164062-1.648437.390625-2.003906 10.035157-49.230469 41.660157-49.230469 9.105468 0 20.539062.957031 28.210937 8.425781l4.070313 4.070313c3.453124-12.777344 5.460937-26.140625 5.460937-39.988281 0-10.796876-1.144531-21.316407-3.277344-31.488282-10.5625 6.878906-22.460937 10.691406-34.917969 10.691406-34.132812 0-62.191406-26.992187-72.253906-41.25-7.304687-10.351562-28.996094-41.105468-3.652344-68.179687-.28125-6.570313.796876-12.042969 3.152344-17.222656-13.5625-3.925781-27.835937-6.152344-42.652344-6.152344-22.519531 0-43.859374 4.992187-63.144531 13.738281 1.765625 1.152344 3.453125 2.390625 5.015625 3.824219 5.835938 5.332031 10.25 12.664063 13.117188 21.785156 3.300781 10.503907 7.40625 32.359375 1.902344 47.640625-.476563 1.324219-1.109376 2.59375-1.757813 3.859375l-.488281.953125c-3.121094 6.375-2.71875 13.648438 1.09375 19.925782 4.148437 6.820312 11.546875 11.179687 19.300781 11.359374 16.710937.390626 40.082031 7.789063 56.5 40.804688 1.390625 2.800781 2.585937 5.617188 3.550781 8.382812 14.191406 40.703126-16.351562 67.421876-40.890625 88.890626-6.136719 5.367187-11.921875 10.4375-16.914062 15.503906-2.851563 2.910156-4.503907 5.617187-4.90625 8.023437-.332031 2.003907.050781 4.617188.460937 7.386719l.1875 1.289062c.539063 3.796876.851563 7.636719 1.058594 11.46875 8.4375 1.445313 17.066406 2.363282 25.914062 2.363282 12.519532 0 24.621094-1.671875 36.269532-4.503906l-7.554688-12.59375c-4.675781-7.734376-3.566406-14.429688-1.808594-18.679688zm0 0"/></svg>